<svg aria-hidden="true" style="position: absolute; width: 0; height: 0; overflow: hidden;" version="1.1" xmlns="http://www.w3.org/2000/svg" xmlns:xlink="http://www.w3.org/1999/xlink">
<defs>
<symbol id="Up" viewBox="0 0 59 32">
<path d="M28.099 0.671c0.212-0.213 0.465-0.382 0.742-0.497s0.575-0.175 0.876-0.175 0.598 0.059 0.876 0.175c0.278 0.115 0.53 0.284 0.742 0.497l27.428 27.429c0.429 0.429 0.671 1.011 0.671 1.618s-0.241 1.189-0.671 1.618c-0.429 0.429-1.011 0.67-1.618 0.67s-1.189-0.241-1.618-0.67l-25.81-25.815-25.81 25.815c-0.429 0.429-1.011 0.67-1.618 0.67s-1.189-0.241-1.618-0.67c-0.429-0.429-0.67-1.011-0.67-1.618s0.241-1.189 0.67-1.618l27.429-27.429z"></path>
</symbol>
<symbol id="Down" viewBox="0 0 59 32">
<path d="M0.671 0.671c0.212-0.213 0.465-0.382 0.742-0.497s0.575-0.175 0.876-0.175c0.301 0 0.598 0.059 0.876 0.175s0.53 0.284 0.742 0.497l25.81 25.815 25.81-25.815c0.213-0.213 0.465-0.381 0.742-0.496s0.576-0.174 0.876-0.174c0.3 0 0.598 0.059 0.876 0.174s0.53 0.284 0.742 0.496 0.381 0.465 0.496 0.742c0.115 0.278 0.174 0.575 0.174 0.876s-0.059 0.598-0.174 0.876c-0.115 0.278-0.283 0.53-0.496 0.742l-27.429 27.429c-0.212 0.213-0.465 0.382-0.742 0.497s-0.575 0.175-0.876 0.175c-0.301 0-0.598-0.059-0.876-0.175s-0.53-0.284-0.742-0.497l-27.429-27.429c-0.213-0.212-0.382-0.465-0.497-0.742s-0.175-0.575-0.175-0.876c0-0.301 0.059-0.598 0.175-0.876s0.284-0.53 0.497-0.742z"></path>
</symbol>
<symbol id="Like-blue" viewBox="0 0 34 32">
<path fill="#3470ff" style="fill: var(--color1, #3470ff)" d="M17.066 2.803c9.468-9.732 33.139 7.298 0 29.197-33.139-21.897-9.468-38.929 0-29.197z"></path>
</symbol>
<symbol id="Like" viewBox="0 0 34 32">
<path fill="#f2f4f7" style="fill: var(--color2, #f2f4f7)" d="M17.066 5.862l-1.53-1.572c-3.59-3.691-10.174-2.417-12.55 2.223-1.116 2.182-1.367 5.333 0.67 9.355 1.963 3.872 6.046 8.51 13.41 13.562 7.364-5.052 11.445-9.69 13.41-13.562 2.037-4.023 1.788-7.172 0.67-9.355-2.377-4.64-8.96-5.916-12.55-2.225l-1.53 1.574zM17.066 32c-32.71-21.615-10.072-38.485-0.375-29.561 0.128 0.118 0.253 0.24 0.375 0.365 0.12-0.126 0.245-0.247 0.375-0.363 9.694-8.93 32.335 7.942-0.375 29.559z"></path>
</symbol>
<symbol id="Car" viewBox="0 0 43 32">
<path d="M10.664 18.667c0 0.707-0.281 1.386-0.781 1.886s-1.178 0.781-1.886 0.781c-0.707 0-1.386-0.281-1.886-0.781s-0.781-1.178-0.781-1.886c0-0.707 0.281-1.386 0.781-1.886s1.178-0.781 1.886-0.781c0.707 0 1.386 0.281 1.886 0.781s0.781 1.178 0.781 1.886zM37.331 18.667c0 0.707-0.281 1.386-0.781 1.886s-1.178 0.781-1.886 0.781c-0.707 0-1.386-0.281-1.886-0.781s-0.781-1.178-0.781-1.886c0-0.707 0.281-1.386 0.781-1.886s1.178-0.781 1.886-0.781c0.707 0 1.386 0.281 1.886 0.781s0.781 1.178 0.781 1.886zM15.997 16c-0.707 0-1.386 0.281-1.886 0.781s-0.781 1.178-0.781 1.886c0 0.707 0.281 1.386 0.781 1.886s1.178 0.781 1.886 0.781h10.667c0.707 0 1.386-0.281 1.886-0.781s0.781-1.178 0.781-1.886c0-0.707-0.281-1.386-0.781-1.886s-1.178-0.781-1.886-0.781h-10.667zM12.963 6.069l-2.549 5.104c-0.104 0.215-0.15 0.454-0.133 0.692s0.097 0.468 0.232 0.666c0.134 0.198 0.318 0.356 0.534 0.46s0.454 0.149 0.692 0.131c2.427-0.195 6.267-0.453 9.592-0.453s7.168 0.259 9.592 0.453c0.238 0.018 0.477-0.027 0.693-0.131s0.399-0.263 0.534-0.46 0.214-0.427 0.232-0.666c0.017-0.238-0.028-0.477-0.133-0.692l-2.549-5.101c-0.11-0.222-0.281-0.408-0.491-0.539s-0.453-0.2-0.701-0.2h-14.352c-0.247 0-0.49 0.069-0.7 0.199s-0.381 0.316-0.492 0.537z"></path>
<path d="M6.717 4.040c0.514-1.2 1.37-2.223 2.46-2.941s2.368-1.1 3.673-1.099h16.965c2.667 0 5.077 1.589 6.128 4.040l2.112 4.928c0.2 0.467 0.56 0.851 1.013 1.077 1.333 0.667 2.28 1.907 2.573 3.365l0.893 4.477c0.089 0.43 0.133 0.866 0.131 1.307v1.101c0 2.171-1.040 4.115-2.667 5.325v5.045c0 0.354-0.141 0.693-0.39 0.943s-0.589 0.39-0.943 0.39h-5.333c-0.354 0-0.693-0.141-0.943-0.39s-0.39-0.589-0.39-0.943v-3.568c-3.445 0.128-7.32 0.235-10.667 0.235s-7.221-0.107-10.667-0.235v3.568c0 0.354-0.14 0.693-0.391 0.943s-0.589 0.39-0.943 0.39h-5.333c-0.354 0-0.693-0.141-0.943-0.39s-0.391-0.589-0.391-0.943v-5.045c-1.627-1.211-2.667-3.155-2.667-5.325v-1.101c0-0.439 0.044-0.876 0.131-1.307l0.893-4.48c0.293-1.456 1.24-2.699 2.571-3.363 0.456-0.226 0.817-0.608 1.016-1.077l2.112-4.928h-0.005zM12.851 2.667c-0.783 0-1.549 0.23-2.203 0.661s-1.166 1.045-1.474 1.765l-2.112 4.925c-0.448 1.048-1.254 1.903-2.275 2.411-0.294 0.146-0.55 0.357-0.749 0.618s-0.335 0.564-0.398 0.886l-0.896 4.477c-0.052 0.258-0.079 0.521-0.080 0.784v1.101c0 2.123 1.653 3.861 3.755 3.957 4.147 0.187 10.096 0.413 14.912 0.413s10.765-0.224 14.912-0.413c1.015-0.049 1.972-0.488 2.671-1.226s1.087-1.716 1.083-2.732v-1.101c0-0.263-0.027-0.524-0.080-0.784l-0.893-4.48c-0.063-0.322-0.199-0.624-0.398-0.884s-0.455-0.471-0.749-0.617c-1.021-0.508-1.827-1.363-2.275-2.411l-2.112-4.928c-0.309-0.72-0.822-1.334-1.476-1.764s-1.421-0.66-2.204-0.66h-16.96z"></path>
</symbol>
<symbol id="Calendar" viewBox="0 0 32 32">
<path d="M7 0c0.265 0 0.52 0.105 0.707 0.293s0.293 0.442 0.293 0.707v1h16v-1c0-0.265 0.105-0.52 0.293-0.707s0.442-0.293 0.707-0.293 0.52 0.105 0.707 0.293c0.187 0.188 0.293 0.442 0.293 0.707v1h2c1.061 0 2.078 0.421 2.828 1.172s1.172 1.768 1.172 2.828v22c0 1.061-0.421 2.078-1.172 2.828s-1.768 1.172-2.828 1.172h-24c-1.061 0-2.078-0.421-2.828-1.172s-1.172-1.768-1.172-2.828v-22c0-1.061 0.421-2.078 1.172-2.828s1.768-1.172 2.828-1.172h2v-1c0-0.265 0.105-0.52 0.293-0.707s0.442-0.293 0.707-0.293zM4 4c-0.53 0-1.039 0.211-1.414 0.586s-0.586 0.884-0.586 1.414v22c0 0.53 0.211 1.039 0.586 1.414s0.884 0.586 1.414 0.586h24c0.53 0 1.039-0.211 1.414-0.586s0.586-0.884 0.586-1.414v-22c0-0.53-0.211-1.039-0.586-1.414s-0.884-0.586-1.414-0.586h-24z"></path>
<path d="M5 8c0-0.265 0.105-0.52 0.293-0.707s0.442-0.293 0.707-0.293h20c0.265 0 0.52 0.105 0.707 0.293s0.293 0.442 0.293 0.707v2c0 0.265-0.105 0.52-0.293 0.707s-0.442 0.293-0.707 0.293h-20c-0.265 0-0.52-0.105-0.707-0.293s-0.293-0.442-0.293-0.707v-2zM22 15c0-0.265 0.105-0.52 0.293-0.707s0.442-0.293 0.707-0.293h2c0.265 0 0.52 0.105 0.707 0.293s0.293 0.442 0.293 0.707v2c0 0.265-0.105 0.52-0.293 0.707s-0.442 0.293-0.707 0.293h-2c-0.265 0-0.52-0.105-0.707-0.293s-0.293-0.442-0.293-0.707v-2zM16 15c0-0.265 0.105-0.52 0.293-0.707s0.442-0.293 0.707-0.293h2c0.265 0 0.52 0.105 0.707 0.293s0.293 0.442 0.293 0.707v2c0 0.265-0.105 0.52-0.293 0.707s-0.442 0.293-0.707 0.293h-2c-0.265 0-0.52-0.105-0.707-0.293s-0.293-0.442-0.293-0.707v-2zM6 21c0-0.265 0.105-0.52 0.293-0.707s0.442-0.293 0.707-0.293h2c0.265 0 0.52 0.105 0.707 0.293s0.293 0.442 0.293 0.707v2c0 0.265-0.105 0.52-0.293 0.707s-0.442 0.293-0.707 0.293h-2c-0.265 0-0.52-0.105-0.707-0.293s-0.293-0.442-0.293-0.707v-2zM12 21c0-0.265 0.105-0.52 0.293-0.707s0.442-0.293 0.707-0.293h2c0.265 0 0.52 0.105 0.707 0.293s0.293 0.442 0.293 0.707v2c0 0.265-0.105 0.52-0.293 0.707s-0.442 0.293-0.707 0.293h-2c-0.265 0-0.52-0.105-0.707-0.293s-0.293-0.442-0.293-0.707v-2z"></path>
</symbol>
<symbol id="Zapravka" viewBox="0 0 32 32">
<path d="M6 5c0-0.265 0.105-0.52 0.293-0.707s0.442-0.293 0.707-0.293h10c0.265 0 0.52 0.105 0.707 0.293s0.293 0.442 0.293 0.707v10c0 0.265-0.105 0.52-0.293 0.707s-0.442 0.293-0.707 0.293h-10c-0.265 0-0.52-0.105-0.707-0.293s-0.293-0.442-0.293-0.707v-10z"></path>
<path d="M2 4c0-1.061 0.421-2.078 1.172-2.828s1.768-1.172 2.828-1.172h12c1.061 0 2.078 0.421 2.828 1.172s1.172 1.768 1.172 2.828v16c1.061 0 2.078 0.421 2.828 1.172s1.172 1.768 1.172 2.828v1c0 0.265 0.105 0.52 0.293 0.707s0.442 0.293 0.707 0.293 0.52-0.105 0.707-0.293c0.187-0.188 0.293-0.442 0.293-0.707v-9h-1c-0.265 0-0.52-0.105-0.707-0.293s-0.293-0.442-0.293-0.707v-6.25c0-0.265 0.105-0.52 0.293-0.707s0.442-0.293 0.707-0.293h2.99c-0.022-0.952-0.106-1.788-0.402-2.444-0.158-0.381-0.435-0.702-0.788-0.916-0.368-0.22-0.928-0.39-1.8-0.39-0.265 0-0.52-0.105-0.707-0.293s-0.293-0.442-0.293-0.707 0.105-0.52 0.293-0.707c0.188-0.188 0.442-0.293 0.707-0.293 1.128-0.003 2.069 0.221 2.824 0.672 0.766 0.456 1.268 1.102 1.588 1.814 0.59 1.31 0.588 2.93 0.588 4.162v6.35c0 0.131-0.025 0.262-0.076 0.383s-0.124 0.232-0.217 0.325-0.203 0.167-0.325 0.217c-0.122 0.050-0.252 0.076-0.383 0.076h-1v9c0 0.796-0.316 1.559-0.879 2.121s-1.326 0.879-2.121 0.879c-0.796 0-1.559-0.316-2.121-0.879s-0.879-1.326-0.879-2.121v-1c0-0.53-0.211-1.039-0.586-1.414s-0.884-0.586-1.414-0.586v8h1c0.265 0 0.52 0.105 0.707 0.293s0.293 0.442 0.293 0.707-0.105 0.52-0.293 0.707c-0.188 0.187-0.442 0.293-0.707 0.293h-22c-0.265 0-0.52-0.105-0.707-0.293s-0.293-0.442-0.293-0.707 0.105-0.52 0.293-0.707c0.188-0.187 0.442-0.293 0.707-0.293h1v-26zM20 4c0-0.53-0.211-1.039-0.586-1.414s-0.884-0.586-1.414-0.586h-12c-0.53 0-1.039 0.211-1.414 0.586s-0.586 0.884-0.586 1.414v26h16v-26z"></path>
</symbol>
<symbol id="Settings" viewBox="0 0 32 32">
<path d="M15.999 9.507c-0.853 0-1.697 0.168-2.484 0.494s-1.503 0.804-2.106 1.407c-0.603 0.603-1.081 1.319-1.407 2.106s-0.494 1.632-0.494 2.484c0 0.853 0.168 1.697 0.494 2.484s0.804 1.503 1.407 2.106c0.603 0.603 1.319 1.081 2.106 1.407s1.632 0.494 2.484 0.494c1.722 0 3.373-0.684 4.591-1.901s1.901-2.869 1.901-4.591-0.684-3.373-1.901-4.591c-1.218-1.217-2.869-1.901-4.591-1.901zM11.507 15.999c0-1.191 0.473-2.334 1.316-3.176s1.985-1.316 3.176-1.316c1.191 0 2.334 0.473 3.176 1.316s1.316 1.985 1.316 3.176-0.473 2.334-1.316 3.176c-0.842 0.842-1.985 1.316-3.176 1.316s-2.334-0.473-3.176-1.316c-0.842-0.842-1.316-1.985-1.316-3.176z"></path>
<path d="M19.591 2.685c-1.054-3.58-6.13-3.58-7.184 0l-0.188 0.638c-0.074 0.25-0.202 0.48-0.376 0.674s-0.389 0.346-0.63 0.446c-0.241 0.1-0.501 0.144-0.761 0.131s-0.514-0.086-0.743-0.21l-0.584-0.32c-3.28-1.784-6.866 1.804-5.080 5.082l0.318 0.584c0.125 0.229 0.196 0.483 0.21 0.743s-0.031 0.52-0.131 0.761c-0.1 0.241-0.252 0.456-0.446 0.63s-0.424 0.303-0.674 0.376l-0.638 0.188c-3.58 1.054-3.58 6.13 0 7.184l0.638 0.188c0.25 0.074 0.48 0.202 0.674 0.376s0.346 0.389 0.446 0.63c0.1 0.241 0.144 0.501 0.131 0.761s-0.086 0.514-0.21 0.743l-0.32 0.584c-1.784 3.28 1.802 6.868 5.082 5.080l0.584-0.318c0.229-0.125 0.483-0.196 0.743-0.21s0.52 0.031 0.761 0.13c0.241 0.1 0.456 0.252 0.63 0.446s0.303 0.424 0.376 0.674l0.188 0.638c1.054 3.58 6.13 3.58 7.184 0l0.188-0.638c0.074-0.25 0.202-0.48 0.376-0.674s0.389-0.346 0.63-0.446c0.241-0.1 0.501-0.144 0.761-0.13s0.514 0.086 0.743 0.21l0.584 0.32c3.28 1.786 6.868-1.804 5.080-5.082l-0.318-0.584c-0.125-0.229-0.196-0.483-0.21-0.743s0.031-0.52 0.13-0.761c0.1-0.241 0.252-0.456 0.446-0.63s0.424-0.303 0.674-0.376l0.638-0.188c3.58-1.054 3.58-6.13 0-7.184l-0.638-0.188c-0.25-0.074-0.48-0.202-0.674-0.376s-0.346-0.389-0.446-0.63c-0.1-0.241-0.144-0.501-0.13-0.761s0.086-0.514 0.21-0.743l0.32-0.584c1.786-3.28-1.804-6.866-5.082-5.080l-0.584 0.318c-0.229 0.125-0.483 0.196-0.743 0.21s-0.52-0.031-0.761-0.131c-0.241-0.1-0.456-0.252-0.63-0.446s-0.303-0.424-0.376-0.674l-0.188-0.638zM14.325 3.251c0.492-1.67 2.856-1.67 3.348 0l0.188 0.638c0.158 0.536 0.434 1.030 0.808 1.446s0.836 0.742 1.352 0.956c0.516 0.214 1.074 0.309 1.632 0.28s1.103-0.184 1.593-0.452l0.582-0.32c1.528-0.83 3.2 0.84 2.368 2.37l-0.318 0.584c-0.267 0.491-0.421 1.035-0.45 1.593s0.066 1.116 0.28 1.632c0.214 0.516 0.541 0.978 0.957 1.352s0.91 0.649 1.446 0.807l0.636 0.188c1.67 0.492 1.67 2.856 0 3.348l-0.638 0.188c-0.536 0.158-1.030 0.434-1.446 0.808s-0.742 0.836-0.956 1.352c-0.214 0.516-0.309 1.074-0.28 1.632s0.184 1.103 0.452 1.593l0.32 0.582c0.83 1.528-0.84 3.2-2.37 2.368l-0.582-0.318c-0.491-0.268-1.036-0.422-1.594-0.451s-1.116 0.066-1.633 0.28c-0.517 0.214-0.979 0.541-1.352 0.957s-0.65 0.91-0.807 1.446l-0.188 0.636c-0.492 1.67-2.856 1.67-3.348 0l-0.188-0.638c-0.158-0.536-0.434-1.030-0.808-1.445s-0.835-0.742-1.352-0.956c-0.516-0.214-1.074-0.309-1.632-0.28s-1.102 0.184-1.593 0.451l-0.584 0.32c-1.528 0.83-3.2-0.84-2.368-2.37l0.318-0.582c0.268-0.491 0.423-1.036 0.452-1.594s-0.066-1.116-0.279-1.633c-0.214-0.517-0.541-0.979-0.957-1.353s-0.91-0.65-1.447-0.808l-0.638-0.188c-1.67-0.492-1.67-2.856 0-3.348l0.638-0.188c0.536-0.158 1.029-0.434 1.444-0.808s0.742-0.835 0.955-1.351c0.214-0.516 0.309-1.073 0.28-1.631s-0.183-1.102-0.45-1.592l-0.32-0.584c-0.83-1.528 0.84-3.2 2.37-2.368l0.584 0.318c0.491 0.267 1.035 0.421 1.593 0.451s1.115-0.066 1.632-0.28c0.516-0.214 0.978-0.54 1.352-0.956s0.65-0.909 0.808-1.445l0.188-0.638z"></path>
</symbol>
<symbol id="Location" viewBox="0 0 32 32">
<path d="M23.061 16.762c-0.982 1.991-2.314 3.975-3.675 5.756-1.293 1.678-2.673 3.287-4.136 4.819-1.463-1.532-2.844-3.141-4.136-4.819-1.361-1.781-2.692-3.765-3.675-5.756-0.994-2.012-1.564-3.896-1.564-5.512 0-2.486 0.988-4.871 2.746-6.629s4.143-2.746 6.629-2.746c2.486 0 4.871 0.988 6.629 2.746s2.746 4.143 2.746 6.629c0 1.616-0.572 3.501-1.564 5.512zM15.25 30c0 0 11.25-10.661 11.25-18.75 0-2.984-1.185-5.845-3.295-7.955s-4.971-3.295-7.955-3.295c-2.984 0-5.845 1.185-7.955 3.295s-3.295 4.971-3.295 7.955c0 8.089 11.25 18.75 11.25 18.75z"></path>
<path d="M15.25 15c-0.995 0-1.948-0.395-2.652-1.098s-1.098-1.657-1.098-2.652c0-0.995 0.395-1.948 1.098-2.652s1.657-1.098 2.652-1.098c0.995 0 1.948 0.395 2.652 1.098s1.098 1.657 1.098 2.652c0 0.995-0.395 1.948-1.098 2.652s-1.657 1.098-2.652 1.098zM15.25 16.875c1.492 0 2.923-0.593 3.977-1.648s1.648-2.486 1.648-3.977c0-1.492-0.593-2.923-1.648-3.977s-2.486-1.648-3.977-1.648c-1.492 0-2.923 0.593-3.977 1.648s-1.648 2.486-1.648 3.977c0 1.492 0.593 2.923 1.648 3.977s2.486 1.648 3.977 1.648z"></path>
</symbol>
<symbol id="VectorO" viewBox="0 0 32 32">
<path d="M16 30c-3.713 0-7.274-1.475-9.899-4.101s-4.101-6.186-4.101-9.899 1.475-7.274 4.101-9.899c2.626-2.626 6.186-4.101 9.899-4.101s7.274 1.475 9.899 4.101c2.626 2.626 4.101 6.186 4.101 9.899s-1.475 7.274-4.101 9.899c-2.625 2.626-6.186 4.101-9.899 4.101zM16 32c4.243 0 8.313-1.686 11.314-4.686s4.686-7.070 4.686-11.314c0-4.243-1.686-8.313-4.686-11.314s-7.070-4.686-11.314-4.686c-4.243 0-8.313 1.686-11.314 4.686s-4.686 7.070-4.686 11.314c0 4.243 1.686 8.313 4.686 11.314s7.070 4.686 11.314 4.686z"></path>
<path d="M21.94 9.94l-0.040 0.044-6.946 8.85-4.186-4.188c-0.284-0.265-0.66-0.409-1.049-0.402s-0.759 0.164-1.034 0.439c-0.275 0.275-0.432 0.646-0.439 1.034s0.137 0.765 0.402 1.049l5.292 5.294c0.143 0.142 0.312 0.254 0.499 0.33s0.387 0.112 0.588 0.108c0.201-0.004 0.4-0.048 0.584-0.13s0.349-0.2 0.487-0.348l7.984-9.98c0.272-0.285 0.42-0.666 0.414-1.060s-0.168-0.77-0.45-1.046c-0.282-0.276-0.66-0.43-1.054-0.429s-0.772 0.157-1.052 0.435z"></path>
</symbol>
<symbol id="Logo" viewBox="0 0 204 32">
<path fill="#3470ff" style="fill: var(--color1, #3470ff)" d="M202.142 15.291c-1.366 0-2.614 0.079-3.744 0.236s-2.351 0.473-3.665 0.946v15.054h-6.857v-22.384h5.084l1.025 2.64c1.366-1.103 2.706-1.892 4.020-2.365s2.694-0.709 4.138-0.709v6.581z"></path>
<path fill="#3470ff" style="fill: var(--color1, #3470ff)" d="M184.597 31.291c-0.841 0.184-1.59 0.315-2.246 0.394-0.631 0.079-1.379 0.118-2.246 0.118-2.522 0-4.177-0.814-4.965-2.443-1.103 0.814-2.207 1.432-3.31 1.852s-2.312 0.631-3.626 0.631c-1.182 0-2.246-0.25-3.192-0.749s-1.681-1.169-2.207-2.010c-0.525-0.841-0.788-1.76-0.788-2.759 0-1.682 0.42-3.008 1.261-3.98 0.867-0.998 2.023-1.787 3.468-2.365 1.445-0.604 3.639-1.327 6.581-2.167l1.182-0.355v-0.158c0-2.417-1.103-3.626-3.31-3.626-1.077 0-2.233 0.236-3.468 0.709s-2.653 1.235-4.256 2.286l-1.301-4.729c1.787-1.025 3.599-1.826 5.438-2.404 1.865-0.578 3.836-0.867 5.911-0.867 2.522 0 4.453 0.683 5.793 2.049 1.366 1.366 2.049 3.704 2.049 7.015v7.488c0 0.578 0.118 0.998 0.355 1.261 0.237 0.236 0.617 0.355 1.143 0.355 0.499 0 0.998-0.066 1.497-0.197l0.237 4.65zM168.873 25.419c0 0.525 0.131 0.906 0.394 1.143 0.289 0.236 0.736 0.355 1.34 0.355 1.103 0 2.404-0.473 3.901-1.419v-4.177l-0.591 0.197c-1.971 0.709-3.31 1.34-4.020 1.892-0.683 0.526-1.025 1.195-1.025 2.010z"></path>
<path fill="#3470ff" style="fill: var(--color1, #3470ff)" d="M150.364 32c-3.258 0-6.016-0.63-8.276-1.892-2.259-1.287-3.954-2.982-5.084-5.084-1.103-2.128-1.655-4.44-1.655-6.936 0-2.47 0.578-4.755 1.734-6.857 1.182-2.102 2.929-3.783 5.241-5.044s5.097-1.892 8.355-1.892c3.048 0 5.727 0.591 8.039 1.773l-1.419 4.966c-0.972-0.499-1.984-0.893-3.034-1.182-1.051-0.315-2.246-0.473-3.586-0.473-1.708 0-3.192 0.394-4.453 1.182-1.235 0.762-2.181 1.813-2.837 3.153-0.631 1.314-0.946 2.785-0.946 4.414 0 2.575 0.683 4.69 2.049 6.345 1.366 1.629 3.323 2.443 5.872 2.443 2.181 0 4.532-0.539 7.054-1.616l1.34 4.847c-1.077 0.552-2.365 0.998-3.862 1.34s-3.008 0.512-4.532 0.512z"></path>
<path fill="#101828" style="fill: var(--color3, #101828)" d="M123.567 0h6.857v31.527h-6.857v-31.527z"></path>
<path fill="#101828" style="fill: var(--color3, #101828)" d="M120.288 31.291c-0.841 0.184-1.59 0.315-2.246 0.394-0.63 0.079-1.379 0.118-2.246 0.118-2.522 0-4.177-0.814-4.966-2.443-1.103 0.814-2.207 1.432-3.31 1.852s-2.312 0.631-3.626 0.631c-1.182 0-2.246-0.25-3.192-0.749s-1.682-1.169-2.207-2.010c-0.525-0.841-0.788-1.76-0.788-2.759 0-1.682 0.42-3.008 1.261-3.98 0.867-0.998 2.023-1.787 3.468-2.365 1.445-0.604 3.639-1.327 6.581-2.167l1.182-0.355v-0.158c0-2.417-1.103-3.626-3.31-3.626-1.077 0-2.233 0.236-3.468 0.709s-2.654 1.235-4.256 2.286l-1.301-4.729c1.787-1.025 3.599-1.826 5.439-2.404 1.865-0.578 3.836-0.867 5.911-0.867 2.522 0 4.453 0.683 5.793 2.049 1.366 1.366 2.049 3.704 2.049 7.015v7.488c0 0.578 0.118 0.998 0.355 1.261 0.236 0.236 0.617 0.355 1.143 0.355 0.499 0 0.998-0.066 1.498-0.197l0.236 4.65zM104.564 25.419c0 0.525 0.131 0.906 0.394 1.143 0.289 0.236 0.736 0.355 1.34 0.355 1.103 0 2.404-0.473 3.901-1.419v-4.177l-0.591 0.197c-1.97 0.709-3.31 1.34-4.020 1.892-0.683 0.526-1.025 1.195-1.025 2.010z"></path>
<path fill="#101828" style="fill: var(--color3, #101828)" d="M95.248 30.069c-0.788 0.552-1.734 0.985-2.838 1.301-1.077 0.289-2.128 0.433-3.153 0.433-2.785 0-4.86-0.604-6.227-1.813-1.366-1.235-2.049-2.995-2.049-5.281v-10.719h-3.35v-2.877l4.217-1.695 1.892-6.030h4.098v5.754h6.305v4.847h-6.305v9.064c0 1.392 0.223 2.378 0.67 2.956s1.117 0.867 2.010 0.867c1.156 0 2.378-0.341 3.665-1.025l1.064 4.217z"></path>
<path fill="#101828" style="fill: var(--color3, #101828)" d="M66.38 8.67c2.916 0 4.926 0.775 6.030 2.325 1.13 1.55 1.695 3.783 1.695 6.7v13.833h-6.857v-12.966c0-1.839-0.223-3.113-0.67-3.823-0.42-0.709-1.248-1.064-2.483-1.064-1.34 0-2.706 0.447-4.098 1.34v16.512h-6.857v-22.384h5.084l0.709 1.852c2.575-1.55 5.058-2.325 7.448-2.325z"></path>
<path fill="#101828" style="fill: var(--color3, #101828)" d="M34.057 21.596c0.131 1.865 0.591 3.245 1.379 4.138s1.997 1.34 3.626 1.34c1.209 0 2.325-0.21 3.35-0.63 1.051-0.447 2.246-1.103 3.586-1.97l1.852 4.335c-1.392 1.13-2.772 1.944-4.138 2.443s-2.929 0.749-4.69 0.749c-2.601 0-4.782-0.499-6.542-1.498-1.76-1.025-3.074-2.404-3.941-4.138-0.841-1.76-1.261-3.757-1.261-5.99 0-3.547 0.998-6.384 2.995-8.512s4.913-3.192 8.749-3.192c3.048 0 5.36 0.828 6.936 2.483 1.603 1.629 2.417 3.954 2.443 6.975 0 1.182-0.171 2.338-0.512 3.468h-13.832zM41.741 17.143c0.026-0.158 0.039-0.368 0.039-0.631-0.026-1.077-0.315-1.892-0.867-2.443-0.552-0.578-1.314-0.867-2.286-0.867-2.312 0-3.757 1.314-4.335 3.941h7.448z"></path>
<path fill="#101828" style="fill: var(--color3, #101828)" d="M10.877 21.675h-3.783v9.852h-7.094v-26.798h10.719c3.836 0 6.634 0.657 8.394 1.97 1.76 1.287 2.64 3.324 2.64 6.108 0 3.626-1.327 6.056-3.98 7.291l7.527 11.429h-8.197l-6.227-9.852zM7.094 16.749h3.626c1.392 0 2.391-0.289 2.995-0.867 0.631-0.578 0.946-1.471 0.946-2.68 0-1.261-0.302-2.167-0.906-2.719s-1.616-0.828-3.034-0.828h-3.626v7.094z"></path>
</symbol>
</defs>
</svg>
